<mxfile host="app.diagrams.net" modified="2023-07-24T15:44:39.176Z" agent="Mozilla/5.0 (Windows NT 10.0; Win64; x64) AppleWebKit/537.36 (KHTML, like Gecko) Chrome/114.0.0.0 Safari/537.36" version="21.6.5" etag="FzsC1bgO03kShcG19l_c" type="github">
  <diagram name="PÃ¡gina-1" id="HfQypP1JjqPrTVuShv0i">
    <mxGraphModel>
      <root>
        <mxCell id="0" />
        <mxCell id="1" parent="0" />
      </root>
    </mxGraphModel>
  </diagram>
</mxfile>
